<svg width="59" height="59" viewBox="0 0 59 59" fill="none" xmlns="http://www.w3.org/2000/svg">
<path d="M52.1009 29.1283C52.1009 41.8157 41.8157 52.1009 29.1283 52.1009C16.4409 52.1009 6.15576 41.8157 6.15576 29.1283C6.15576 16.4409 16.4409 6.15573 29.1283 6.15573C41.8157 6.15573 52.1009 16.4409 52.1009 29.1283ZM10.4335 29.1283C10.4335 39.4532 18.8034 47.8232 29.1283 47.8232C39.4532 47.8232 47.8232 39.4532 47.8232 29.1283C47.8232 18.8034 39.4532 10.4334 29.1283 10.4334C18.8034 10.4334 10.4335 18.8034 10.4335 29.1283Z" fill="#EEEEEE"/>
<path d="M27.425 8.36434C27.3284 7.18704 28.2058 6.14388 29.3869 6.15715C34.3315 6.21268 39.148 7.8639 43.1028 10.895C47.6259 14.3616 50.699 19.3855 51.7253 24.991C52.7516 30.5965 51.6579 36.3834 48.6564 41.2277C45.655 46.0719 40.9602 49.6276 35.484 51.2042C30.0077 52.7808 24.141 52.2657 19.0232 49.759C13.9055 47.2523 9.90211 42.9328 7.79073 37.6397C5.67935 32.3466 5.61068 26.4577 7.59807 21.1168C9.3358 16.4468 12.537 12.4873 16.6951 9.81111C17.6884 9.17181 18.9861 9.58879 19.5303 10.6372C20.0745 11.6856 19.6571 12.9669 18.6777 13.6273C15.4557 15.7994 12.9747 18.9337 11.6072 22.6086C9.98989 26.955 10.0458 31.7473 11.764 36.0548C13.4822 40.3623 16.7401 43.8774 20.9049 45.9174C25.0697 47.9573 29.844 48.3765 34.3005 47.0935C38.757 45.8105 42.5776 42.9168 45.0202 38.9747C47.4627 35.0325 48.3528 30.3232 47.5176 25.7614C46.6824 21.1997 44.1815 17.1113 40.5007 14.2902C37.3885 11.905 33.6207 10.5697 29.737 10.4433C28.5564 10.4049 27.5216 9.54164 27.425 8.36434Z" fill="url(#paint0_linear_2_1875)"/>
<defs>
<linearGradient id="paint0_linear_2_1875" x1="50.8866" y1="21.7582" x2="7.37014" y2="36.4984" gradientUnits="userSpaceOnUse">
<stop stop-color="#0077FF"/>
<stop offset="1" stop-color="#8FFF00" stop-opacity="0"/>
</linearGradient>
</defs>
</svg>
