<svg width="59" height="59" viewBox="0 0 59 59" fill="none" xmlns="http://www.w3.org/2000/svg">
<path d="M52.1009 29.1283C52.1009 41.8157 41.8157 52.1009 29.1283 52.1009C16.4409 52.1009 6.15576 41.8157 6.15576 29.1283C6.15576 16.4409 16.4409 6.15576 29.1283 6.15576C41.8157 6.15576 52.1009 16.4409 52.1009 29.1283ZM10.4335 29.1283C10.4335 39.4532 18.8034 47.8232 29.1283 47.8232C39.4532 47.8232 47.8232 39.4532 47.8232 29.1283C47.8232 18.8034 39.4532 10.4335 29.1283 10.4335C18.8034 10.4335 10.4335 18.8034 10.4335 29.1283Z" fill="#EEEEEE"/>
<path d="M27.425 8.36436C27.3284 7.18706 28.2058 6.14391 29.3869 6.15721C32.6282 6.19369 35.8336 6.91593 38.7892 8.28587C42.3933 9.95643 45.5026 12.533 47.8136 15.7641C50.1246 18.9952 51.5582 22.7703 51.9745 26.7209C52.3908 30.6715 51.7755 34.6626 50.1888 38.3044C48.602 41.9462 46.098 45.1143 42.9213 47.4994C39.7445 49.8845 36.0036 51.405 32.0637 51.9126C28.1238 52.4202 24.1196 51.8974 20.442 50.3954C17.4263 49.1636 14.7147 47.3078 12.481 44.9589C11.667 44.1028 11.8336 42.75 12.7616 42.0191C13.6896 41.2882 15.0264 41.4583 15.8584 42.2967C17.6215 44.0734 19.7289 45.4833 22.0595 46.4353C25.0522 47.6576 28.3108 48.083 31.5171 47.67C34.7233 47.2569 37.7677 46.0195 40.3529 44.0785C42.9381 42.1376 44.9759 39.5594 46.2671 36.5957C47.5584 33.632 48.0591 30.3842 47.7203 27.1692C47.3816 23.9543 46.2149 20.8821 44.3342 18.2527C42.4536 15.6232 39.9232 13.5264 36.9902 12.1669C34.7061 11.1082 32.2387 10.5248 29.737 10.4434C28.5563 10.4049 27.5216 9.54165 27.425 8.36436Z" fill="url(#paint0_linear_2_1851)"/>
<defs>
<linearGradient id="paint0_linear_2_1851" x1="50.8866" y1="21.7582" x2="7.37014" y2="36.4984" gradientUnits="userSpaceOnUse">
<stop stop-color="#0077FF"/>
<stop offset="1" stop-color="#FA00FF" stop-opacity="0"/>
</linearGradient>
</defs>
</svg>
