<svg width="59" height="59" viewBox="0 0 59 59" fill="none" xmlns="http://www.w3.org/2000/svg">
<path d="M52.1009 29.1283C52.1009 41.8157 41.8157 52.1009 29.1283 52.1009C16.4409 52.1009 6.15576 41.8157 6.15576 29.1283C6.15576 16.4409 16.4409 6.15576 29.1283 6.15576C41.8157 6.15576 52.1009 16.4409 52.1009 29.1283ZM10.4335 29.1283C10.4335 39.4532 18.8034 47.8232 29.1283 47.8232C39.4532 47.8232 47.8232 39.4532 47.8232 29.1283C47.8232 18.8034 39.4532 10.4335 29.1283 10.4335C18.8034 10.4335 10.4335 18.8034 10.4335 29.1283Z" fill="#EEEEEE"/>
<path d="M27.425 8.36436C27.3284 7.18706 28.2058 6.1439 29.387 6.15719C33.741 6.20616 38.0078 7.49248 41.6794 9.88745C45.9502 12.6733 49.1728 16.801 50.8393 21.6201C52.5059 26.4392 52.5218 31.6758 50.8844 36.5049C49.2471 41.334 46.0496 45.4811 41.7957 48.2929C37.5418 51.1046 32.4734 52.4211 27.3889 52.035C22.3044 51.6488 17.4928 49.5821 13.7123 46.1602C9.93183 42.7384 7.39724 38.156 6.5079 33.135C5.74335 28.8186 6.23207 24.3889 7.89333 20.364C8.34401 19.2721 9.64756 18.8737 10.6928 19.4239C11.7381 19.9742 12.1268 21.2645 11.6995 22.3657C10.4672 25.5416 10.1212 29.0079 10.72 32.3889C11.4438 36.475 13.5064 40.2041 16.5829 42.9887C19.6595 45.7734 23.5751 47.4553 27.7128 47.7695C31.8505 48.0838 35.9752 47.0124 39.4369 44.7243C42.8987 42.4361 45.5008 39.0612 46.8333 35.1313C48.1657 31.2015 48.1528 26.9399 46.7966 23.0182C45.4403 19.0965 42.8178 15.7374 39.3423 13.4703C36.4664 11.5943 33.1418 10.5542 29.737 10.4433C28.5564 10.4049 27.5216 9.54165 27.425 8.36436Z" fill="url(#paint0_linear_2_1859)"/>
<defs>
<linearGradient id="paint0_linear_2_1859" x1="50.8866" y1="21.7582" x2="7.37014" y2="36.4984" gradientUnits="userSpaceOnUse">
<stop stop-color="#0077FF"/>
<stop offset="1" stop-color="#66BC22" stop-opacity="0"/>
</linearGradient>
</defs>
</svg>
