<svg width="59" height="59" viewBox="0 0 59 59" fill="none" xmlns="http://www.w3.org/2000/svg">
<path d="M52.1009 29.1283C52.1009 41.8158 41.8157 52.1009 29.1283 52.1009C16.4409 52.1009 6.15576 41.8158 6.15576 29.1283C6.15576 16.4409 16.4409 6.15577 29.1283 6.15577C41.8157 6.15577 52.1009 16.4409 52.1009 29.1283ZM10.4335 29.1283C10.4335 39.4532 18.8034 47.8232 29.1283 47.8232C39.4532 47.8232 47.8232 39.4532 47.8232 29.1283C47.8232 18.8035 39.4532 10.4335 29.1283 10.4335C18.8034 10.4335 10.4335 18.8035 10.4335 29.1283Z" fill="#EEEEEE"/>
<path d="M27.425 8.36436C27.3284 7.18706 28.2058 6.14392 29.3869 6.15721C32.6328 6.19374 35.8427 6.91799 38.8016 8.29166C42.409 9.96634 45.5198 12.5489 47.8296 15.7865C50.1394 19.0242 51.5691 22.806 51.9788 26.762C52.3148 30.0069 51.9551 33.2777 50.9334 36.3588C50.5616 37.4801 49.2898 37.9702 48.208 37.4958C47.1262 37.0213 46.6466 35.762 46.9944 34.6331C47.7326 32.2375 47.9835 29.7105 47.7238 27.2026C47.3904 23.9833 46.227 20.9056 44.3473 18.2709C42.4676 15.6361 39.936 13.5345 37.0004 12.1716C34.7135 11.11 32.2424 10.525 29.7369 10.4434C28.5563 10.4049 27.5216 9.54166 27.425 8.36436Z" fill="#0077FF"/>
</svg>
