<svg width="13" height="15" viewBox="0 0 13 15" fill="none" xmlns="http://www.w3.org/2000/svg">
<path fill-rule="evenodd" clip-rule="evenodd" d="M9.23848 0.0960693C11.4885 0.0960693 13 1.63689 13 3.92987V10.5111C13 12.8241 11.535 14.3284 9.26782 14.3428L3.76224 14.3449C1.51219 14.3449 0 12.8041 0 10.5111V3.92987C0 1.61614 1.46496 0.11253 3.73218 0.098932L9.23777 0.0960693H9.23848ZM9.23848 1.16956L3.73576 1.17242C2.06969 1.18244 1.07349 2.213 1.07349 3.92987V10.5111C1.07349 12.2394 2.079 13.2714 3.76152 13.2714L9.26425 13.2693C10.9303 13.2592 11.9265 12.2273 11.9265 10.5111V3.92987C11.9265 2.20155 10.9217 1.16956 9.23848 1.16956ZM9.10043 9.73868C9.39671 9.73868 9.63718 9.97915 9.63718 10.2754C9.63718 10.5717 9.39671 10.8122 9.10043 10.8122H3.93335C3.63707 10.8122 3.3966 10.5717 3.3966 10.2754C3.3966 9.97915 3.63707 9.73868 3.93335 9.73868H9.10043ZM9.10043 6.74257C9.39671 6.74257 9.63718 6.98303 9.63718 7.27931C9.63718 7.5756 9.39671 7.81606 9.10043 7.81606H3.93335C3.63707 7.81606 3.3966 7.5756 3.3966 7.27931C3.3966 6.98303 3.63707 6.74257 3.93335 6.74257H9.10043ZM5.90478 3.75339C6.20107 3.75339 6.44153 3.99385 6.44153 4.29013C6.44153 4.58642 6.20107 4.82688 5.90478 4.82688H3.93314C3.63685 4.82688 3.39639 4.58642 3.39639 4.29013C3.39639 3.99385 3.63685 3.75339 3.93314 3.75339H5.90478Z" fill="#0077FF"/>
</svg>
