<svg width="24" height="30" viewBox="0 0 24 30" fill="none" xmlns="http://www.w3.org/2000/svg">
<path fill-rule="evenodd" clip-rule="evenodd" d="M9.50329 26.7901C10.1754 27.5388 11.0382 27.9501 11.9335 27.9501H11.9348C12.834 27.9501 13.7007 27.5388 14.3741 26.7888C14.7348 26.3905 15.3498 26.3581 15.7482 26.7175C16.1478 27.0769 16.1803 27.6932 15.8208 28.0915C14.7725 29.2554 13.3932 29.8964 11.9348 29.8964H11.9322C10.4777 29.8951 9.10106 29.2541 8.05657 28.0902C7.69716 27.6919 7.7296 27.0756 8.12923 26.7175C8.52886 26.3568 9.14388 26.3892 9.50329 26.7901ZM11.9981 2C17.7655 2 21.6399 6.49196 21.6399 10.6868C21.6399 12.8446 22.1887 13.7593 22.7713 14.7298C23.3474 15.6874 24.0001 16.7747 24.0001 18.8299C23.5472 24.081 18.0653 24.5091 11.9981 24.5091C5.93099 24.5091 0.447735 24.081 7.82094e-05 18.913C-0.00379698 16.7747 0.648848 15.6874 1.22494 14.7298L1.42832 14.3875C1.92906 13.5269 2.35637 12.5907 2.35637 10.6868C2.35637 6.49196 6.23072 2 11.9981 2ZM11.9981 3.94626C7.46335 3.94626 4.30262 7.49883 4.30262 10.6868C4.30262 13.3843 3.55396 14.6312 2.89224 15.7315C2.36156 16.6151 1.94246 17.3132 1.94246 18.8299C2.15915 21.277 3.77454 22.5629 11.9981 22.5629C20.1763 22.5629 21.8423 21.22 22.0577 18.7456C22.0538 17.3132 21.6347 16.6151 21.104 15.7315C20.4423 14.6312 19.6936 13.3843 19.6936 10.6868C19.6936 7.49883 16.5329 3.94626 11.9981 3.94626Z" fill="#0077FF"/>
<circle cx="19.5" cy="4.5" r="4.5" fill="#D50000"/>
</svg>
